<?xml version="1.0" encoding="UTF-8"?>
<svg version="1.1" xmlns="http://www.w3.org/2000/svg" width="1024" height="1024">
<path d="M0 0 C337.92 0 675.84 0 1024 0 C1024 337.92 1024 675.84 1024 1024 C686.08 1024 348.16 1024 0 1024 C0 686.08 0 348.16 0 0 Z " fill="#F9F9F9" transform="translate(0,0)"/>
<path d="M0 0 C0.72590332 0.49145508 1.45180664 0.98291016 2.19970703 1.48925781 C11.45852218 7.76129334 19.89069145 14.28264136 28 22 C29.34766139 23.17417513 30.7013926 24.34143834 32.0625 25.5 C40.57845529 32.93842625 48.06749372 41.08396512 55 50 C55.54285645 50.68819824 56.08571289 51.37639648 56.64501953 52.08544922 C93.99988567 99.61416039 113.20082002 155.70617592 113.25 216 C113.25101212 217.13702866 113.25101212 217.13702866 113.25204468 218.29702759 C113.23324393 231.71882861 112.32666746 244.76135378 110 258 C109.83371094 258.97404785 109.66742187 259.9480957 109.49609375 260.95166016 C105.63121257 282.97790431 98.69671106 303.86796122 89 324 C88.67 324.69029297 88.34 325.38058594 88 326.09179688 C78.33405516 346.1977173 66.99139847 364.68630361 52.2890625 381.50048828 C50.25508252 383.86653091 48.3222948 386.31250078 46.375 388.75 C42.25969211 393.799594 37.95828528 398.75453374 33 403 C32.34 403 31.68 403 31 403 C30.67 403.99 30.34 404.98 30 406 C27.57056416 408.58037712 24.7313092 410.74786786 22 413 C21.48630859 413.42990234 20.97261719 413.85980469 20.44335938 414.30273438 C11.09911046 422.10229953 1.35825378 429.08661952 -8.89208984 435.64648438 C-10.75960408 436.84563875 -12.60898177 438.06809276 -14.45703125 439.296875 C-32.0977295 450.55077796 -52.8501824 459.43661419 -73 465 C-73.78648926 465.22091309 -74.57297852 465.44182617 -75.38330078 465.66943359 C-89.73750861 469.61536629 -104.20103593 471.5836379 -119 473 C-119.99523682 473.09643799 -120.99047363 473.19287598 -122.01586914 473.29223633 C-191.46339986 479.59035286 -256.31874591 455.63614468 -309.35839844 411.62817383 C-321.67523171 401.2153324 -333.15470664 389.78390753 -343 377 C-343.76054687 376.06800781 -344.52109375 375.13601563 -345.3046875 374.17578125 C-375.68245468 336.27636246 -393.94755001 288.06079374 -399 240 C-399.09498779 239.13165527 -399.18997559 238.26331055 -399.2878418 237.36865234 C-402.82072713 202.52969244 -399.02345983 164.92843238 -387 132 C-386.69690918 131.1538916 -386.39381836 130.3077832 -386.08154297 129.43603516 C-377.21235452 104.81242654 -365.78960008 81.94410812 -350 61 C-349.17948574 59.89077421 -348.35917364 58.78139887 -347.5390625 57.671875 C-341.82281283 50.01366035 -335.62640563 42.88488955 -329 36 C-328.39881348 35.37158203 -327.79762695 34.74316406 -327.17822266 34.09570312 C-318.82482446 25.40800079 -310.30124113 17.38320115 -300.61425781 10.20410156 C-299.06785334 9.05061292 -297.54498312 7.86577424 -296.0234375 6.6796875 C-261.78364702 -19.80769759 -219.73230177 -36.84725447 -177 -43 C-175.78014404 -43.17571533 -175.78014404 -43.17571533 -174.53564453 -43.35498047 C-113.88380117 -51.63631351 -50.16815181 -34.56527696 0 0 Z " fill="#0C1519" transform="translate(649,299)"/>
<path d="M0 0 C1.18873718 -0.00788544 1.18873718 -0.00788544 2.40148926 -0.01593018 C5.01265358 -0.02909905 7.62320482 -0.0204033 10.234375 -0.01025391 C12.05371212 -0.01227554 13.87304846 -0.01518773 15.69238281 -0.01895142 C19.50203175 -0.02337055 23.31146941 -0.01695695 27.12109375 -0.00292969 C32.00035419 0.01416197 36.87911954 0.00431858 41.75836182 -0.01364708 C45.51419799 -0.02449602 49.2699171 -0.02103348 53.02575684 -0.0132637 C54.82466694 -0.01126477 56.62358773 -0.0137102 58.42248535 -0.02070236 C60.93819263 -0.02833515 63.45310203 -0.01668744 65.96875 0 C66.70967896 -0.00607269 67.45060791 -0.01214539 68.21398926 -0.0184021 C72.65631333 0.03609221 75.43943815 0.68432994 78.984375 3.38818359 C84.34392451 9.3432386 83.984375 11.75573209 83.984375 20.38818359 C70.784375 20.38818359 57.584375 20.38818359 43.984375 20.38818359 C43.984375 37.21818359 43.984375 54.04818359 43.984375 71.38818359 C64.114375 71.38818359 84.244375 71.38818359 104.984375 71.38818359 C104.984375 54.88818359 104.984375 38.38818359 104.984375 21.38818359 C112.904375 21.38818359 120.824375 21.38818359 128.984375 21.38818359 C129.66282375 53.19989154 126.24356927 81.45405265 114.984375 111.45068359 C114.67661133 112.27076904 114.36884766 113.09085449 114.05175781 113.93579102 C111.42067187 120.70640672 108.27245833 126.81201693 104.984375 133.38818359 C84.854375 133.38818359 64.724375 133.38818359 43.984375 133.38818359 C43.984375 154.17818359 43.984375 174.96818359 43.984375 196.38818359 C23.524375 196.38818359 3.064375 196.38818359 -18.015625 196.38818359 C-18.015625 214.86818359 -18.015625 233.34818359 -18.015625 252.38818359 C-38.76154337 259.30348972 -38.76154337 259.30348972 -49.015625 261.63818359 C-50.04300781 261.88052734 -51.07039062 262.12287109 -52.12890625 262.37255859 C-55.08707912 263.06417716 -58.04980263 263.7302436 -61.015625 264.38818359 C-61.8921875 264.59121094 -62.76875 264.79423828 -63.671875 265.00341797 C-64.5071875 265.18710937 -65.3425 265.37080078 -66.203125 265.56005859 C-66.91855469 265.72086914 -67.63398437 265.88167969 -68.37109375 266.04736328 C-72.22241406 266.54371143 -76.13245238 266.38818359 -80.015625 266.38818359 C-80.015625 243.28818359 -80.015625 220.18818359 -80.015625 196.38818359 C-59.885625 196.38818359 -39.755625 196.38818359 -19.015625 196.38818359 C-19.015625 175.59818359 -19.015625 154.80818359 -19.015625 133.38818359 C-39.145625 133.38818359 -59.275625 133.38818359 -80.015625 133.38818359 C-80.015625 112.92818359 -80.015625 92.46818359 -80.015625 71.38818359 C-59.555625 71.38818359 -39.095625 71.38818359 -18.015625 71.38818359 C-18.21316296 52.00208887 -18.21316296 52.00208887 -18.46606445 32.61669922 C-18.48067543 30.17595515 -18.49341465 27.73519885 -18.50390625 25.29443359 C-18.542276 23.41256348 -18.542276 23.41256348 -18.5814209 21.49267578 C-18.58461586 15.0567378 -18.28923055 10.3182954 -14.58049011 4.94226074 C-10.14151349 0.53388581 -6.05451081 -0.04962309 0 0 Z " fill="#F5F5F5" transform="translate(611.015625,482.61181640625)"/>
<path d="M0 0 C0.33 0 0.66 0 1 0 C1 36.96 1 73.92 1 112 C21.13 112 41.26 112 62 112 C62 132.79 62 153.58 62 175 C41.87 175 21.74 175 1 175 C1 198.1 1 221.2 1 245 C0.67 245 0.34 245 0 245 C0 201.44 0 157.88 0 113 C-20.46 113 -40.92 113 -62 113 C-62 133.46 -62 153.92 -62 175 C-82.13 175 -102.26 175 -123 175 C-123 154.21 -123 133.42 -123 112 C-102.87 112 -82.74 112 -62 112 C-62 91.54 -62 71.08 -62 50 C-41.54 49.67 -21.08 49.34 0 49 C0 32.83 0 16.66 0 0 Z " fill="#11191E" transform="translate(530,504)"/>
<path d="M0 0 C1.19635826 -0.01796127 1.19635826 -0.01796127 2.41688538 -0.0362854 C5.04095554 -0.06836145 7.66336507 -0.06366571 10.28759766 -0.05566406 C12.12074348 -0.06411832 13.95388417 -0.07375992 15.78701782 -0.08453369 C19.62529412 -0.10090905 23.46299348 -0.09823045 27.30126953 -0.08300781 C32.20663591 -0.06573504 37.10985949 -0.10284659 42.01491356 -0.15526962 C45.80013017 -0.18844213 49.58483607 -0.1889363 53.37016678 -0.18012238 C55.17779679 -0.18048105 56.98546001 -0.19169856 58.79294968 -0.21422577 C74.66636875 -0.38579142 74.66636875 -0.38579142 79.93457031 4.10742188 C85.1119183 9.80819263 83.82666016 11.32902759 83.82666016 20.67871094 C60.72666016 20.67871094 37.62666016 20.67871094 13.82666016 20.67871094 C13.82666016 37.50871094 13.82666016 54.33871094 13.82666016 71.67871094 C-5.97333984 71.67871094 -25.77333984 71.67871094 -46.17333984 71.67871094 C-46.17333984 84.21871094 -46.17333984 96.75871094 -46.17333984 109.67871094 C-60.2041678 95.64788298 -61.24995586 57.23362095 -61.37988281 38.80761719 C-61.3543311 32.76431028 -61.25649749 26.72149971 -61.17333984 20.67871094 C-46.65333984 20.67871094 -32.13333984 20.67871094 -17.17333984 20.67871094 C-17.17333984 18.36871094 -17.17333984 16.05871094 -17.17333984 13.67871094 C-16.72802734 11.42089844 -16.72802734 11.42089844 -16.04833984 9.55371094 C-15.83951172 8.93238281 -15.63068359 8.31105469 -15.41552734 7.67089844 C-11.53688686 1.45043729 -7.04748953 -0.06628948 0 0 Z " fill="#F8F8F8" transform="translate(332.17333984375,482.3212890625)"/>
<path d="M0 0 C36.96 0 73.92 0 112 0 C112 20.79 112 41.58 112 63 C92.2 63 72.4 63 52 63 C52 65.97 52 68.94 52 72 C50.89062424 70.89062424 49.78203643 69.78045635 48.67578125 68.66796875 C47.45411732 67.45200022 46.22068694 66.2478197 44.98046875 65.05078125 C28.72639903 49.19523513 15.42564295 29.97232131 4.375 10.1875 C3.93679932 9.4042334 3.49859863 8.6209668 3.04711914 7.81396484 C0 2.25777864 0 2.25777864 0 0 Z " fill="#F7F7F7" transform="translate(295,616)"/>
<path d="M0 0 C7.92 0 15.84 0 24 0 C24.67844875 31.81170794 21.25919427 60.06586906 10 90.0625 C9.69223633 90.88258545 9.38447266 91.7026709 9.06738281 92.54760742 C6.43629687 99.31822313 3.28808333 105.42383334 0 112 C-20.13 112 -40.26 112 -61 112 C-61 91.54 -61 71.08 -61 50 C-40.87 50 -20.74 50 0 50 C0 33.5 0 17 0 0 Z " fill="#F8F9F9" transform="translate(716,504)"/>
<path d="M0 0 C1.18873718 -0.00788544 1.18873718 -0.00788544 2.40148926 -0.01593018 C5.01265358 -0.02909905 7.62320482 -0.0204033 10.234375 -0.01025391 C12.05371212 -0.01227554 13.87304846 -0.01518773 15.69238281 -0.01895142 C19.50203175 -0.02337055 23.31146941 -0.01695695 27.12109375 -0.00292969 C32.00035419 0.01416197 36.87911954 0.00431858 41.75836182 -0.01364708 C45.51419799 -0.02449602 49.2699171 -0.02103348 53.02575684 -0.0132637 C54.82466694 -0.01126477 56.62358773 -0.0137102 58.42248535 -0.02070236 C60.93819263 -0.02833515 63.45310203 -0.01668744 65.96875 0 C66.70967896 -0.00607269 67.45060791 -0.01214539 68.21398926 -0.0184021 C72.65631333 0.03609221 75.43943815 0.68432994 78.984375 3.38818359 C84.34392451 9.3432386 83.984375 11.75573209 83.984375 20.38818359 C70.784375 20.38818359 57.584375 20.38818359 43.984375 20.38818359 C43.984375 37.21818359 43.984375 54.04818359 43.984375 71.38818359 C23.524375 71.38818359 3.064375 71.38818359 -18.015625 71.38818359 C-18.11875 61.65318359 -18.221875 51.91818359 -18.328125 41.88818359 C-18.37364502 38.82859375 -18.41916504 35.76900391 -18.46606445 32.61669922 C-18.48067543 30.17595515 -18.49341465 27.73519885 -18.50390625 25.29443359 C-18.52948608 24.03985352 -18.55506592 22.78527344 -18.5814209 21.49267578 C-18.58461586 15.0567378 -18.28923055 10.3182954 -14.58049011 4.94226074 C-10.14151349 0.53388581 -6.05451081 -0.04962309 0 0 Z " fill="#F8F8F8" transform="translate(611.015625,482.61181640625)"/>
<path d="M0 0 C20.46 0 40.92 0 62 0 C62 20.46 62 40.92 62 62 C41.54 62 21.08 62 0 62 C0 41.54 0 21.08 0 0 Z " fill="#F9F9F9" transform="translate(468,617)"/>
<path d="M0 0 C20.46 0 40.92 0 62 0 C62 20.46 62 40.92 62 62 C41.54 62 21.08 62 0 62 C0 41.54 0 21.08 0 0 Z " fill="#0B1319" transform="translate(593,554)"/>
<path d="M0 0 C20.13 0 40.26 0 61 0 C61 20.79 61 41.58 61 63 C40.87 63 20.74 63 0 63 C0 42.21 0 21.42 0 0 Z " fill="#0C1418" transform="translate(531,616)"/>
<path d="M0 0 C20.13 0 40.26 0 61 0 C61 20.46 61 40.92 61 62 C40.87 62 20.74 62 0 62 C0 41.54 0 21.08 0 0 Z " fill="#F8F9F9" transform="translate(407,554)"/>
<path d="M0 0 C20.13 0 40.26 0 61 0 C61 20.46 61 40.92 61 62 C40.87 62 20.74 62 0 62 C0 41.54 0 21.08 0 0 Z " fill="#F9F9F9" transform="translate(531,554)"/>
<path d="M0 0 C20.13 0 40.26 0 61 0 C61 22.77 61 45.54 61 69 C33.24418848 63.21753927 33.24418848 63.21753927 24.3125 60.0625 C23.38501953 59.75376953 22.45753906 59.44503906 21.50195312 59.12695312 C14.00514457 56.5623918 7.28444498 53.36205153 0 50 C0 33.5 0 17 0 0 Z " fill="#F8F9F9" transform="translate(407,679)"/>
<path d="M0 0 C20.46 0 40.92 0 62 0 C62 16.5 62 33 62 50 C59.31900947 51.34049527 57.26688794 51.1198052 54.26513672 51.11352539 C53.06404266 51.11344986 51.86294861 51.11337433 50.62545776 51.11329651 C49.32335358 51.10813522 48.02124939 51.10297394 46.6796875 51.09765625 C45.33733167 51.09579138 43.99497516 51.0943678 42.65261841 51.09336853 C39.11804325 51.08954878 35.58350913 51.07972312 32.0489502 51.06866455 C28.44279546 51.05843878 24.83663391 51.05381365 21.23046875 51.04882812 C14.15360958 51.03863092 7.07686312 51.01905798 0 51 C0 34.17 0 17.34 0 0 Z " fill="#F7F7F7" transform="translate(468,503)"/>
<path d="M0 0 C7.53298956 5.17483631 11.15716839 11.05206513 13.375 19.8125 C14.65883315 27.42212921 13.4123133 34.26159189 9.3125 40.8125 C4.16478925 47.76315292 -1.33775531 52.41671963 -10 54 C-20.6095739 55.06622269 -28.01435639 53.41597198 -36.3125 46.75 C-42.32342154 41.19408845 -45.0693134 34.31912577 -45.39428711 26.19848633 C-45.58011999 16.47533228 -44.11124798 10.46133345 -37.2890625 3.171875 C-27.13951845 -6.28878597 -11.88707024 -7.10708432 0 0 Z " fill="#F9FAFA" transform="translate(660,369)"/>
<path d="M0 0 C8.39290248 4.43176626 12.56883071 10.50727338 15.5078125 19.32421875 C16.56440537 29.36853833 15.26929811 36.94387605 9.5078125 45.32421875 C4.47242966 51.40098247 -2.73959736 54.77843743 -10.51953125 55.671875 C-20.17534777 55.95193021 -27.88475015 53.56717267 -35.0546875 46.86328125 C-40.6521826 40.90194897 -43.64526436 34.01160496 -43.9921875 25.82421875 C-43.61403627 17.17553417 -40.31419941 10.29328318 -34.4296875 4.015625 C-24.81870581 -4.374607 -11.42836351 -4.74793528 0 0 Z " fill="#F9FAFA" transform="translate(380.4921875,367.67578125)"/>
<path d="M0 0 C0.90720795 0.00141495 1.81441589 0.0028299 2.74911499 0.00428772 C5.65308905 0.00989529 8.55698665 0.02244907 11.4609375 0.03515625 C13.42708222 0.04017027 15.39322815 0.04473335 17.359375 0.04882812 C22.1849254 0.05986719 27.01041847 0.0771369 31.8359375 0.09765625 C33.39034885 3.70628845 34.93838893 7.317581 36.48071289 10.93139648 C37.26311874 12.76102619 38.05047263 14.5885374 38.83789062 16.41601562 C39.33095703 17.57294922 39.82402344 18.72988281 40.33203125 19.921875 C40.78763428 20.98494873 41.2432373 22.04802246 41.71264648 23.14331055 C42.8359375 26.09765625 42.8359375 26.09765625 43.8359375 31.09765625 C22.0559375 31.09765625 0.2759375 31.09765625 -22.1640625 31.09765625 C-19.92074959 24.36771751 -17.60125213 17.72948588 -15.1015625 11.09765625 C-14.75029297 10.14503906 -14.39902344 9.19242187 -14.03710938 8.2109375 C-13.69615234 7.30730469 -13.35519531 6.40367187 -13.00390625 5.47265625 C-12.69831787 4.65539062 -12.39272949 3.838125 -12.07788086 2.99609375 C-9.90555202 -1.51687154 -4.31829971 -0.02514147 0 0 Z " fill="#F9FAFA" transform="translate(634.1640625,436.90234375)"/>
<path d="M0 0 C1.77206192 0.00015919 3.54412846 0.00585754 5.31616211 0.01586914 C6.24698105 0.01728409 7.17779999 0.01869904 8.13682556 0.02015686 C11.12241777 0.02577367 14.10793615 0.03832899 17.09350586 0.05102539 C19.11238499 0.05603823 21.13126529 0.06060151 23.15014648 0.06469727 C28.11046158 0.07574856 33.07072118 0.09302444 38.03100586 0.11352539 C39.60447846 3.75845794 41.1708483 7.4063512 42.73071289 11.05712891 C43.26229859 12.2985226 43.79581431 13.53909169 44.33129883 14.77880859 C45.10086429 16.56137349 45.86291276 18.34717768 46.62475586 20.13305664 C47.0855957 21.206604 47.54643555 22.28015137 48.02124023 23.38623047 C49.03100586 26.11352539 49.03100586 26.11352539 49.03100586 29.11352539 C27.58100586 29.11352539 6.13100586 29.11352539 -15.96899414 29.11352539 C-10.30761848 13.26167354 -10.30761848 13.26167354 -7.71899414 7.30102539 C-7.21883789 6.13958008 -6.71868164 4.97813477 -6.20336914 3.78149414 C-4.51353569 0.12910095 -4.51353569 0.12910095 0 0 Z " fill="#FAFAFA" transform="translate(348.968994140625,437.886474609375)"/>
<path d="M0 0 C7.77301496 1.88927447 13.96559416 5.2203723 18.3515625 12.12890625 C22.2078742 19.66119853 22.90488392 26.56891805 22 35 C19.17432727 43.72931041 14.73198526 49.82996294 6.75390625 54.2421875 C0.18365231 57.29078533 -5.84887951 57.44233735 -13 57 C-10.69354946 54.69354946 -9.49239993 54.50280865 -6.375 53.75 C-0.29536898 51.98409561 4.7681344 49.35750217 8.34765625 43.97265625 C12.36352534 36.24318778 13.30404899 28.3065756 11.2109375 19.7890625 C8.73992683 12.14967836 6.38833395 7.00707255 0 2 C0 1.34 0 0.68 0 0 Z " fill="#DBDEDE" transform="translate(374,366)"/>
<path d="M0 0 C9.2529553 2.16155103 16.67919891 5.8608973 21.96484375 14.03125 C25.90677015 21.52834775 26.89193022 28.73462986 25 37 C22.40649344 44.81525413 17.81351247 50.4099601 11 55 C7.45679424 56.63659737 3.93722626 58 0 58 C0.0625 56.25 0.0625 56.25 1 54 C2.051875 53.46375 3.10375 52.9275 4.1875 52.375 C9.64404072 49.56235015 12.77438343 43.74370151 14.64453125 38.03125 C16.22593042 28.99468333 15.0831059 20.21145396 11 12 C8.58656099 8.70762244 5.93062028 5.83433706 3 3 C2 2 1 1 0 0 Z " fill="#DADCDC" transform="translate(648,365)"/>
<path d="M0 0 C13.53 0 27.06 0 41 0 C42.794375 4.186875 44.58875 8.37375 46.4375 12.6875 C47.00267334 13.99936279 47.56784668 15.31122559 48.15014648 16.6628418 C48.59430908 17.70609619 49.03847168 18.74935059 49.49609375 19.82421875 C49.95169678 20.88729248 50.4072998 21.95036621 50.87670898 23.0456543 C52 26 52 26 53 31 C31.22 31 9.44 31 -13 31 C-12.67 30.34 -12.34 29.68 -12 29 C5.82 29 23.64 29 42 29 C38.90157555 15.52933925 38.90157555 15.52933925 31 2 C25.7116101 0.77056101 20.57242911 0.83007748 15.1875 0.9375 C13.71678266 0.93442352 12.24606786 0.92730461 10.77539062 0.91601562 C7.18243537 0.89722194 3.59250813 0.93373628 0 1 C0 0.67 0 0.34 0 0 Z " fill="#BFC4C6" transform="translate(625,437)"/>
<path d="M0 0 C3.3 0 6.6 0 10 0 C11.57114634 3.6642354 13.13760116 7.33043621 14.69970703 10.99853516 C15.23194385 12.24648273 15.76546678 13.4938826 16.30029297 14.74072266 C17.06814869 16.53143628 17.83102285 18.32428343 18.59375 20.1171875 C19.05458984 21.19597168 19.51542969 22.27475586 19.99023438 23.38623047 C21 26 21 26 21 28 C17.7 28 14.4 28 11 28 C10.60675537 27.02389771 10.60675537 27.02389771 10.20556641 26.02807617 C9.01551906 23.07980098 7.82032258 20.13364016 6.625 17.1875 C6.2125 16.16333984 5.8 15.13917969 5.375 14.08398438 C4.97539062 13.10107422 4.57578125 12.11816406 4.1640625 11.10546875 C3.79748535 10.19949951 3.4309082 9.29353027 3.05322266 8.36010742 C1.9940418 5.80963691 1.9940418 5.80963691 0 3 C0 2.01 0 1.02 0 0 Z " fill="#DCDFE1" transform="translate(377,438)"/>
<path d="M0 0 C8.72512369 -0.44365036 8.72512369 -0.44365036 13 3 C18.10895027 8.67661141 18.10630506 12.66495054 18 20 C14.37 20 10.74 20 7 20 C6.9071875 18.02 6.9071875 18.02 6.8125 16 C6.32661239 11.40219785 4.80134984 8.46353495 2.15625 4.7265625 C1 3 1 3 0 0 Z " fill="#DDDFDF" transform="translate(677,483)"/>
<path d="M0 0 C4.24431997 -0.61896333 7.62636431 -0.87225866 11.34375 1.48828125 C16.5 6 16.5 6 18 9 C18.07033769 10.87379605 18.0843022 12.75001102 18.0625 14.625 C18.05347656 15.62789063 18.04445313 16.63078125 18.03515625 17.6640625 C18.02355469 18.43492187 18.01195312 19.20578125 18 20 C14.7 20 11.4 20 8 20 C7.9071875 18.02 7.9071875 18.02 7.8125 16 C7.24401948 10.69975513 5.07989147 7.24084745 2 3 C1.34 2.01 0.68 1.02 0 0 Z " fill="#DEE0E1" transform="translate(398,483)"/>
<path d="M0 0 C5.61 0 11.22 0 17 0 C12.49708931 6.75436604 12.49708931 6.75436604 10.01953125 8.9921875 C9.23352539 9.70761719 9.23352539 9.70761719 8.43164062 10.4375 C7.63016602 11.1490625 7.63016602 11.1490625 6.8125 11.875 C5.99362305 12.62136719 5.99362305 12.62136719 5.15820312 13.3828125 C1.14849116 17 1.14849116 17 0 17 C0 11.39 0 5.78 0 0 Z " fill="#F9FCFC" transform="translate(655,679)"/>
<path d="M0 0 C0.33 0 0.66 0 1 0 C1 12.54 1 25.08 1 38 C-1.6855594 35.3144406 -2.06049974 32.62378672 -3 29 C-2.01 29 -1.02 29 0 29 C0 19.43 0 9.86 0 0 Z " fill="#DEE1E2" transform="translate(285,554)"/>
<path d="M0 0 C5.61 0 11.22 0 17 0 C16.01 1.32 15.02 2.64 14 4 C13.67 3.01 13.34 2.02 13 1 C12.34 1.165 11.68 1.33 11 1.5 C7.26900206 2.12183299 3.78126622 2.06408926 0 2 C0 1.34 0 0.68 0 0 Z " fill="#EDF3F6" transform="translate(655,679)"/>
<path d="M0 0 C0.80050781 0.03480469 1.60101562 0.06960938 2.42578125 0.10546875 C3.63814453 0.14607422 3.63814453 0.14607422 4.875 0.1875 C5.48988281 0.22230469 6.10476563 0.25710938 6.73828125 0.29296875 C6.40828125 1.28296875 6.07828125 2.27296875 5.73828125 3.29296875 C2.10828125 3.29296875 -1.52171875 3.29296875 -5.26171875 3.29296875 C-2.26171875 0.29296875 -2.26171875 0.29296875 0 0 Z " fill="#E9ECED" transform="translate(642.26171875,419.70703125)"/>
<path d="M0 0 C-0.33 0.66 -0.66 1.32 -1 2 C-3.97 2 -6.94 2 -10 2 C-6.86358686 -1.13641314 -4.14410883 -1.38136961 0 0 Z " fill="#E3E7E8" transform="translate(371,421)"/>
</svg>
